<?xml version="1.0" encoding="UTF-8"?>
<svg xmlns="http://www.w3.org/2000/svg" viewBox="0 0 128 128" width="128" height="128">
  <ellipse cx="64" cy="116" rx="36" ry="8" fill="#000000" opacity="0.24"/>
  <circle cx="64" cy="72" r="46" fill="#B35E0A"/>
  <circle cx="64" cy="70" r="42" fill="#EF7D0D" stroke="#1A1410" stroke-width="2"/>
  <ellipse cx="64" cy="92" rx="30" ry="16" fill="#FF7A2A" opacity="0.07"/>
  <ellipse cx="64" cy="86" rx="34" ry="20" fill="#B35E0A" opacity="0.40"/>
  <ellipse cx="50" cy="50" rx="20" ry="14" fill="#FFFFFF" opacity="0.30"/>
  <ellipse cx="44" cy="44" rx="9" ry="6" fill="#FFFFFF" opacity="0.46"/>
  <ellipse cx="52" cy="32" rx="8" ry="10" fill="#8F5E2C" stroke="#1A1410" stroke-width="1.5"/>
  <ellipse cx="52" cy="31" rx="6" ry="7" fill="#C68642"/>
  <ellipse cx="76" cy="32" rx="8" ry="10" fill="#8F5E2C" stroke="#1A1410" stroke-width="1.5"/>
  <ellipse cx="76" cy="31" rx="6" ry="7" fill="#C68642"/>
  <ellipse cx="50" cy="68" rx="13" ry="15" fill="#FFFFFF" stroke="#1A1410" stroke-width="2"/>
  <ellipse cx="78" cy="68" rx="13" ry="15" fill="#FFFFFF" stroke="#1A1410" stroke-width="2"/>
  <circle cx="53" cy="70" r="5" fill="#12100E"/>
  <circle cx="81" cy="70" r="5" fill="#12100E"/>
  <circle cx="51" cy="66" r="2.2" fill="#FFFFFF" opacity="0.95"/>
  <circle cx="79" cy="66" r="2.2" fill="#FFFFFF" opacity="0.95"/>
</svg>
