<?xml version="1.0" encoding="UTF-8"?>
<svg xmlns="http://www.w3.org/2000/svg" viewBox="0 0 128 128" width="128" height="128">
  <ellipse cx="64" cy="116" rx="36" ry="8" fill="#000000" opacity="0.24"/>
  <circle cx="64" cy="72" r="46" fill="#4F2290"/>
  <circle cx="64" cy="70" r="42" fill="#6B2FBC" stroke="#1A1410" stroke-width="2"/>
  <ellipse cx="64" cy="92" rx="30" ry="16" fill="#FF7A2A" opacity="0.07"/>
  <ellipse cx="64" cy="86" rx="34" ry="20" fill="#4F2290" opacity="0.40"/>
  <ellipse cx="50" cy="50" rx="20" ry="14" fill="#FFFFFF" opacity="0.30"/>
  <ellipse cx="44" cy="44" rx="9" ry="6" fill="#FFFFFF" opacity="0.46"/>
  <ellipse cx="64" cy="30" rx="12" ry="5" fill="#4A3018" stroke="#1A1410" stroke-width="1.5"/>
  <ellipse cx="64" cy="29" rx="8.5" ry="3.2" fill="#8B5A2E"/>
  <ellipse cx="62" cy="28.5" rx="3" ry="1.2" fill="#B88952" opacity="0.75"/>
  <path d="M64 27 C64 24.5 65.5 22 68 20" fill="none" stroke="#5A3F24" stroke-width="6.5" stroke-linecap="round"/>
  <path d="M64 27 C64 24.5 65.5 22 68 20" fill="none" stroke="#C9A66B" stroke-width="3.6" stroke-linecap="round"/>
  <path d="M64 27 C65 24.5 66.5 22.5 68 20" fill="none" stroke="#E8D2A4" stroke-width="1.4" stroke-linecap="round" opacity="0.55"/>
  <ellipse cx="50" cy="68" rx="13" ry="15" fill="#FFFFFF" stroke="#1A1410" stroke-width="2"/>
  <ellipse cx="78" cy="68" rx="13" ry="15" fill="#FFFFFF" stroke="#1A1410" stroke-width="2"/>
  <circle cx="53" cy="70" r="5" fill="#12100E"/>
  <circle cx="81" cy="70" r="5" fill="#12100E"/>
  <circle cx="51" cy="66" r="2.2" fill="#FFFFFF" opacity="0.95"/>
  <circle cx="79" cy="66" r="2.2" fill="#FFFFFF" opacity="0.95"/>
</svg>
