<?xml version="1.0" encoding="UTF-8"?>
<svg xmlns="http://www.w3.org/2000/svg" viewBox="0 0 128 128" width="128" height="128">
  <ellipse cx="64" cy="118" rx="38" ry="8" fill="#000000" opacity="0.18"/>
  <path d="M24 78 C24 48 40 28 64 28 C88 28 104 48 104 78 C104 98 88 112 64 112 C40 112 24 98 24 78 Z"
        fill="#4F2290" stroke="#111111" stroke-width="3" stroke-linejoin="round"/>
  <path d="M30 74 C30 50 44 34 64 34 C84 34 98 50 98 74 C98 92 84 104 64 104 C44 104 30 92 30 74 Z"
        fill="#6B2FBC"/>
  <ellipse cx="48" cy="62" rx="16" ry="18" fill="#FFFFFF" stroke="#111111" stroke-width="2"/>
  <ellipse cx="80" cy="62" rx="16" ry="18" fill="#FFFFFF" stroke="#111111" stroke-width="2"/>
  <circle cx="52" cy="64" r="6" fill="#1A1410"/>
  <circle cx="84" cy="64" r="6" fill="#1A1410"/>
  <circle cx="50" cy="60" r="3" fill="#FFFFFF" opacity="0.85"/>
  <circle cx="82" cy="60" r="3" fill="#FFFFFF" opacity="0.85"/>
  <path d="M54 86 Q64 92 74 86" fill="none" stroke="#111111" stroke-width="2.5" stroke-linecap="round" opacity="0.55"/>
  <ellipse cx="44" cy="48" rx="10" ry="6" fill="#FFFFFF" opacity="0.22"/>
</svg>
